<svg width="72" height="72" viewBox="0 0 72 72" fill="#FFF" xmlns="http://www.w3.org/2000/svg">
<path d="M11.4545 66V54.5454C9.86364 54 8.55681 53.034 7.53408 51.6477C6.51135 50.2614 6 48.6819 6 46.9092V41.4546H22.3636V46.9092C22.3636 48.6819 21.8523 50.2614 20.8295 51.6477C19.8068 53.034 18.5 54 16.9091 54.5454V66H11.4545ZM33.2727 66V54.5454C31.6818 54 30.375 53.034 29.3523 51.6477C28.3295 50.2614 27.8182 48.6819 27.8182 46.9092V41.4546H44.1819V46.9092C44.1819 48.6819 43.6704 50.2614 42.6477 51.6477C41.625 53.034 40.3182 54 38.7273 54.5454V66H33.2727ZM55.0908 66V54.5454C53.4999 54 52.1931 53.034 51.1704 51.6477C50.1477 50.2614 49.6365 48.6819 49.6365 46.9092V41.4546H66V46.9092C66 48.6819 65.4885 50.2614 64.4658 51.6477C63.4431 53.034 62.1363 54 60.5454 54.5454V66H55.0908ZM6 36V22.3636C6 21.5909 6.26136 20.9432 6.78408 20.4205C7.30683 19.8977 7.95456 19.6364 8.72727 19.6364H11.4545V8.72727C11.4545 7.95456 11.7159 7.30683 12.2386 6.78408C12.7614 6.26136 13.4091 6 14.1818 6C14.9546 6 15.6023 6.26136 16.125 6.78408C16.6477 7.30683 16.9091 7.95456 16.9091 8.72727V19.6364H19.6364C20.4091 19.6364 21.0568 19.8977 21.5795 20.4205C22.1023 20.9432 22.3636 21.5909 22.3636 22.3636V36H6ZM27.8182 36V22.3636C27.8182 21.5909 28.0796 20.9432 28.6023 20.4205C29.125 19.8977 29.7727 19.6364 30.5454 19.6364H33.2727V8.72727C33.2727 7.95456 33.534 7.30683 34.0569 6.78408C34.5795 6.26136 35.2272 6 36 6C36.7728 6 37.4205 6.26136 37.9431 6.78408C38.466 7.30683 38.7273 7.95456 38.7273 8.72727V19.6364H41.4546C42.2274 19.6364 42.8751 19.8977 43.3977 20.4205C43.9206 20.9432 44.1819 21.5909 44.1819 22.3636V36H27.8182ZM49.6365 36V22.3636C49.6365 21.5909 49.8978 20.9432 50.4204 20.4205C50.9433 19.8977 51.591 19.6364 52.3635 19.6364H55.0908V8.72727C55.0908 7.95456 55.3524 7.30683 55.875 6.78408C56.3976 6.26136 57.0456 6 57.8181 6C58.5909 6 59.2386 6.26136 59.7615 6.78408C60.2841 7.30683 60.5454 7.95456 60.5454 8.72727V19.6364H63.2727C64.0455 19.6364 64.6932 19.8977 65.2158 20.4205C65.7387 20.9432 66 21.5909 66 22.3636V36H49.6365Z"/>
</svg>
