<svg width="72" height="72" viewBox="0 0 72 72" fill="#FFF" xmlns="http://www.w3.org/2000/svg">
<path d="M47.9412 39.8181L43.1268 45C42.6621 45.5001 42.0708 45.75 41.3529 45.75C40.635 45.75 40.0437 45.5001 39.5793 45C39.1146 44.4999 38.8824 43.8636 38.8824 43.0908C38.8824 42.3183 39.1146 41.6817 39.5793 41.1819L44.3937 36L39.5793 30.8181C39.1146 30.3183 38.8824 29.6818 38.8824 28.9091C38.8824 28.1364 39.1146 27.5 39.5793 27C40.0437 26.5 40.635 26.25 41.3529 26.25C42.0708 26.25 42.6621 26.5 43.1268 27L47.9412 32.1819L52.7556 27C53.2203 26.5 53.8116 26.25 54.5295 26.25C55.2474 26.25 55.8387 26.5 56.3031 27C56.7678 27.5 57 28.1364 57 28.9091C57 29.6818 56.7678 30.3183 56.3031 30.8181L51.4887 36L56.3031 41.1819C56.7678 41.6817 57 42.3183 57 43.0908C57 43.8636 56.7678 44.4999 56.3031 45C55.8387 45.5001 55.2474 45.75 54.5295 45.75C53.8116 45.75 53.2203 45.5001 52.7556 45L47.9412 39.8181ZM20.0679 66C18.6742 66 17.4812 65.466 16.4887 64.3977C15.4962 63.3294 15 62.0454 15 60.5454V11.4545C15 9.95454 15.4962 8.67045 16.4887 7.60227C17.4812 6.53409 18.6742 6 20.0679 6H45.4071C46.8009 6 47.994 6.53409 48.9864 7.60227C49.9788 8.67045 50.475 9.95454 50.475 11.4545V19.6364C50.475 20.4091 50.2323 21.0568 49.7466 21.5795C49.2609 22.1023 48.6591 22.3636 47.9412 22.3636C47.2233 22.3636 46.6215 22.1023 46.1358 21.5795C45.6501 21.0568 45.4071 20.4091 45.4071 19.6364H20.0679V52.3635H45.4071C45.4071 51.591 45.6501 50.9433 46.1358 50.4204C46.6215 49.8978 47.2233 49.6365 47.9412 49.6365C48.6591 49.6365 49.2609 49.8978 49.7466 50.4204C50.2323 50.9433 50.475 51.591 50.475 52.3635V60.5454C50.475 62.0454 49.9788 63.3294 48.9864 64.3977C47.994 65.466 46.8009 66 45.4071 66H20.0679Z" />
</svg>
