<svg width="72" height="72" viewBox="0 0 72 72" fill="#FFF" xmlns="http://www.w3.org/2000/svg">
<path d="M14 64C12.35 64 10.9375 63.4125 9.7625 62.2375C8.5875 61.0625 8 59.65 8 58V46C8 44.35 8.5875 42.9375 9.7625 41.7625C10.9375 40.5875 12.35 40 14 40H44V28H50V40H56C57.65 40 59.0625 40.5875 60.2375 41.7625C61.4125 42.9375 62 44.35 62 46V58C62 59.65 61.4125 61.0625 60.2375 62.2375C59.0625 63.4125 57.65 64 56 64H14ZM14 58H56V46H14V58ZM20 55C20.85 55 21.5625 54.7125 22.1375 54.1375C22.7125 53.5625 23 52.85 23 52C23 51.15 22.7125 50.4375 22.1375 49.8625C21.5625 49.2875 20.85 49 20 49C19.15 49 18.4375 49.2875 17.8625 49.8625C17.2875 50.4375 17 51.15 17 52C17 52.85 17.2875 53.5625 17.8625 54.1375C18.4375 54.7125 19.15 55 20 55ZM30.5 55C31.35 55 32.0625 54.7125 32.6375 54.1375C33.2125 53.5625 33.5 52.85 33.5 52C33.5 51.15 33.2125 50.4375 32.6375 49.8625C32.0625 49.2875 31.35 49 30.5 49C29.65 49 28.9375 49.2875 28.3625 49.8625C27.7875 50.4375 27.5 51.15 27.5 52C27.5 52.85 27.7875 53.5625 28.3625 54.1375C28.9375 54.7125 29.65 55 30.5 55ZM41 55C41.85 55 42.5625 54.7125 43.1375 54.1375C43.7125 53.5625 44 52.85 44 52C44 51.15 43.7125 50.4375 43.1375 49.8625C42.5625 49.2875 41.85 49 41 49C40.15 49 39.4375 49.2875 38.8625 49.8625C38.2875 50.4375 38 51.15 38 52C38 52.85 38.2875 53.5625 38.8625 54.1375C39.4375 54.7125 40.15 55 41 55ZM41.75 25.75L37.4 21.4C38.7 20.2 40.15 19.25 41.75 18.55C43.35 17.85 45.1 17.5 47 17.5C48.9 17.5 50.65 17.85 52.25 18.55C53.85 19.25 55.3 20.2 56.6 21.4L52.25 25.75C51.55 25.05 50.7625 24.5 49.8875 24.1C49.0125 23.7 48.05 23.5 47 23.5C45.95 23.5 44.9875 23.7 44.1125 24.1C43.2375 24.5 42.45 25.05 41.75 25.75ZM34.25 18.25L30.05 14.05C32.25 11.85 34.8 10.125 37.7 8.875C40.6 7.625 43.7 7 47 7C50.3 7 53.4 7.625 56.3 8.875C59.2 10.125 61.75 11.85 63.95 14.05L59.75 18.25C58.1 16.6 56.1875 15.3125 54.0125 14.3875C51.8375 13.4625 49.5 13 47 13C44.5 13 42.1625 13.4625 39.9875 14.3875C37.8125 15.3125 35.9 16.6 34.25 18.25Z"/>
</svg>
