<svg width="72" height="72" viewBox="0 0 72 72" fill="#FFF" xmlns="http://www.w3.org/2000/svg">
<path d="M39 34.6722L48 43.6722C48.55 44.2222 48.825 44.9222 48.825 45.7722C48.825 46.6222 48.55 47.3222 48 47.8722C47.45 48.4222 46.75 48.6972 45.9 48.6972C45.05 48.6972 44.35 48.4222 43.8 47.8722L33.9 37.9722C33.6 37.6722 33.375 37.3347 33.225 36.9597C33.075 36.5847 33 36.1972 33 35.7972V23.8722C33 23.0222 33.2875 22.3097 33.8625 21.7347C34.4375 21.1597 35.15 20.8722 36 20.8722C36.85 20.8722 37.5625 21.1597 38.1375 21.7347C38.7125 22.3097 39 23.0222 39 23.8722V34.6722ZM45.75 14.8722C44.7 14.8722 43.8125 14.5097 43.0875 13.7847C42.3625 13.0597 42 12.1722 42 11.1222C42 10.0722 42.3625 9.18472 43.0875 8.45972C43.8125 7.73472 44.7 7.37222 45.75 7.37222C46.8 7.37222 47.6875 7.73472 48.4125 8.45972C49.1375 9.18472 49.5 10.0722 49.5 11.1222C49.5 12.1722 49.1375 13.0597 48.4125 13.7847C47.6875 14.5097 46.8 14.8722 45.75 14.8722ZM45.75 64.3722C44.7 64.3722 43.8125 64.0097 43.0875 63.2847C42.3625 62.5597 42 61.6722 42 60.6222C42 59.5722 42.3625 58.6847 43.0875 57.9597C43.8125 57.2347 44.7 56.8722 45.75 56.8722C46.8 56.8722 47.6875 57.2347 48.4125 57.9597C49.1375 58.6847 49.5 59.5722 49.5 60.6222C49.5 61.6722 49.1375 62.5597 48.4125 63.2847C47.6875 64.0097 46.8 64.3722 45.75 64.3722ZM57.75 25.3722C56.7 25.3722 55.8125 25.0097 55.0875 24.2847C54.3625 23.5597 54 22.6722 54 21.6222C54 20.5722 54.3625 19.6847 55.0875 18.9597C55.8125 18.2347 56.7 17.8722 57.75 17.8722C58.8 17.8722 59.6875 18.2347 60.4125 18.9597C61.1375 19.6847 61.5 20.5722 61.5 21.6222C61.5 22.6722 61.1375 23.5597 60.4125 24.2847C59.6875 25.0097 58.8 25.3722 57.75 25.3722ZM57.75 53.8722C56.7 53.8722 55.8125 53.5097 55.0875 52.7847C54.3625 52.0597 54 51.1722 54 50.1222C54 49.0722 54.3625 48.1847 55.0875 47.4597C55.8125 46.7347 56.7 46.3722 57.75 46.3722C58.8 46.3722 59.6875 46.7347 60.4125 47.4597C61.1375 48.1847 61.5 49.0722 61.5 50.1222C61.5 51.1722 61.1375 52.0597 60.4125 52.7847C59.6875 53.5097 58.8 53.8722 57.75 53.8722ZM62.25 39.6222C61.2 39.6222 60.3125 39.2597 59.5875 38.5347C58.8625 37.8097 58.5 36.9222 58.5 35.8722C58.5 34.8222 58.8625 33.9347 59.5875 33.2097C60.3125 32.4847 61.2 32.1222 62.25 32.1222C63.3 32.1222 64.1875 32.4847 64.9125 33.2097C65.6375 33.9347 66 34.8222 66 35.8722C66 36.9222 65.6375 37.8097 64.9125 38.5347C64.1875 39.2597 63.3 39.6222 62.25 39.6222ZM6 35.8722C6 28.0222 8.6125 21.2722 13.8375 15.6222C19.0625 9.97222 25.475 6.77222 33.075 6.02222C33.875 5.92222 34.5625 6.15972 35.1375 6.73472C35.7125 7.30972 36 8.02222 36 8.87222C36 9.67222 35.7375 10.3722 35.2125 10.9722C34.6875 11.5722 34.025 11.9222 33.225 12.0222C27.175 12.7222 22.125 15.3222 18.075 19.8222C14.025 24.3222 12 29.6722 12 35.8722C12 42.1222 14.025 47.4847 18.075 51.9597C22.125 56.4347 27.175 59.0222 33.225 59.7222C34.025 59.8222 34.6875 60.1722 35.2125 60.7722C35.7375 61.3722 36 62.0722 36 62.8722C36 63.7222 35.7125 64.4347 35.1375 65.0097C34.5625 65.5847 33.875 65.8222 33.075 65.7222C25.425 64.9722 19 61.7722 13.8 56.1222C8.6 50.4722 6 43.7222 6 35.8722Z"/>
</svg>
