<svg width="72" height="72" viewBox="0 0 72 72" fill="#FFFFFF" xmlns="http://www.w3.org/2000/svg">
<path d="M33 58.275V37.725L15 27.3V47.85L33 58.275ZM39 58.275L57 47.85V27.3L39 37.725V58.275ZM36 32.55L53.775 22.275L36 12L18.225 22.275L36 32.55ZM12 53.1C11.05 52.55 10.3125 51.825 9.7875 50.925C9.2625 50.025 9 49.025 9 47.925V24.075C9 22.975 9.2625 21.975 9.7875 21.075C10.3125 20.175 11.05 19.45 12 18.9L33 6.825C33.95 6.275 34.95 6 36 6C37.05 6 38.05 6.275 39 6.825L60 18.9C60.95 19.45 61.6875 20.175 62.2125 21.075C62.7375 21.975 63 22.975 63 24.075V47.925C63 49.025 62.7375 50.025 62.2125 50.925C61.6875 51.825 60.95 52.55 60 53.1L39 65.175C38.05 65.725 37.05 66 36 66C34.95 66 33.95 65.725 33 65.175L12 53.1Z"/>
</svg>
