<svg width="72" height="72" viewBox="0 0 72 72" fill="#FFF" xmlns="http://www.w3.org/2000/svg">
<path d="M57.15 55.275L52.95 59.4C52.4 59.95 51.7125 60.2375 50.8875 60.2625C50.0625 60.2875 49.35 60 48.75 59.4C48.2 58.85 47.925 58.15 47.925 57.3C47.925 56.45 48.2 55.75 48.75 55.2L52.95 51L48.75 46.8C48.2 46.25 47.925 45.55 47.925 44.7C47.925 43.85 48.2 43.15 48.75 42.6C49.3 42.05 50 41.775 50.85 41.775C51.7 41.775 52.4 42.05 52.95 42.6L57.15 46.8L61.35 42.6C61.9 42.05 62.5875 41.775 63.4125 41.775C64.2375 41.775 64.95 42.05 65.55 42.6C66.15 43.2 66.45 43.9125 66.45 44.7375C66.45 45.5625 66.15 46.275 65.55 46.875L61.425 51L65.55 55.2C66.1 55.75 66.3875 56.4375 66.4125 57.2625C66.4375 58.0875 66.15 58.8 65.55 59.4C65 59.95 64.3 60.225 63.45 60.225C62.6 60.225 61.9 59.95 61.35 59.4L57.15 55.275ZM36.15 12C41.8 12 47.275 12.8875 52.575 14.6625C57.875 16.4375 62.725 19.05 67.125 22.5C67.875 23.05 68.4375 23.7375 68.8125 24.5625C69.1875 25.3875 69.375 26.225 69.375 27.075C69.375 27.925 69.2125 28.75 68.8875 29.55C68.5625 30.35 68.075 31.075 67.425 31.725L63.975 35.175C63.375 35.725 62.6625 36.0125 61.8375 36.0375C61.0125 36.0625 60.3 35.775 59.7 35.175C59.1 34.575 58.8 33.8625 58.8 33.0375C58.8 32.2125 59.1 31.5 59.7 30.9L63.45 27.15C59.5 24.15 55.2 21.875 50.55 20.325C45.9 18.775 41.1 18 36.15 18C31.2 18 26.4 18.775 21.75 20.325C17.1 21.875 12.8 24.15 8.85 27.15L36.15 54.45L36.975 53.625C37.575 53.025 38.2875 52.725 39.1125 52.725C39.9375 52.725 40.65 53.025 41.25 53.625C41.85 54.225 42.15 54.9375 42.15 55.7625C42.15 56.5875 41.85 57.3 41.25 57.9L40.425 58.725C39.825 59.325 39.15 59.775 38.4 60.075C37.65 60.375 36.9 60.525 36.15 60.525C35.4 60.525 34.65 60.375 33.9 60.075C33.15 59.775 32.475 59.325 31.875 58.725L4.875 31.725C4.225 31.075 3.75 30.3625 3.45 29.5875C3.15 28.8125 3 28 3 27.15C3 26.3 3.175 25.4625 3.525 24.6375C3.875 23.8125 4.425 23.1 5.175 22.5C9.575 19.05 14.425 16.4375 19.725 14.6625C25.025 12.8875 30.5 12 36.15 12Z"/>
</svg>
