<svg width="72" height="72" viewBox="0 0 72 72" fill="#FFF" xmlns="http://www.w3.org/2000/svg">
<path d="M36 63C33.9 63 32.125 62.275 30.675 60.825C29.225 59.375 28.5 57.6 28.5 55.5C28.5 53.4 29.225 51.625 30.675 50.175C32.125 48.725 33.9 48 36 48C38.1 48 39.875 48.725 41.325 50.175C42.775 51.625 43.5 53.4 43.5 55.5C43.5 57.6 42.775 59.375 41.325 60.825C39.875 62.275 38.1 63 36 63ZM36 30C39.75 30 43.3125 30.6 46.6875 31.8C50.0625 33 53.125 34.65 55.875 36.75C56.875 37.5 57.3875 38.4875 57.4125 39.7125C57.4375 40.9375 57 42 56.1 42.9C55.25 43.75 54.2 44.1875 52.95 44.2125C51.7 44.2375 50.575 43.9 49.575 43.2C47.675 41.9 45.575 40.875 43.275 40.125C40.975 39.375 38.55 39 36 39C33.45 39 31.025 39.375 28.725 40.125C26.425 40.875 24.325 41.9 22.425 43.2C21.425 43.9 20.3 44.225 19.05 44.175C17.8 44.125 16.75 43.675 15.9 42.825C15.05 41.925 14.625 40.8625 14.625 39.6375C14.625 38.4125 15.125 37.425 16.125 36.675C18.875 34.575 21.9375 32.9375 25.3125 31.7625C28.6875 30.5875 32.25 30 36 30ZM36 12C42.25 12 48.1375 13.025 53.6625 15.075C59.1875 17.125 64.15 20.025 68.55 23.775C69.55 24.625 70.075 25.675 70.125 26.925C70.175 28.175 69.75 29.25 68.85 30.15C68 31 66.95 31.4375 65.7 31.4625C64.45 31.4875 63.325 31.1 62.325 30.3C58.725 27.35 54.6875 25.0625 50.2125 23.4375C45.7375 21.8125 41 21 36 21C31 21 26.2625 21.8125 21.7875 23.4375C17.3125 25.0625 13.275 27.35 9.67504 30.3C8.67504 31.1 7.55004 31.4875 6.30004 31.4625C5.05004 31.4375 4.00004 31 3.15004 30.15C2.25004 29.25 1.82504 28.175 1.87504 26.925C1.92504 25.675 2.45004 24.625 3.45004 23.775C7.85004 20.025 12.8125 17.125 18.3375 15.075C23.8625 13.025 29.75 12 36 12Z"/>
</svg>
